<svg width="12" height="12" viewBox="0 0 12 12" fill="none" xmlns="http://www.w3.org/2000/svg">
<g clip-path="url(#clip0_345_87956)">
<path d="M3.42779 10.7142C3.17035 10.7097 2.91722 10.6473 2.68722 10.5315C2.45722 10.4158 2.25624 10.2497 2.09922 10.0456L0.213504 7.91136C0.138001 7.82669 0.0800563 7.72788 0.0430306 7.62064C0.00600496 7.51341 -0.00936556 7.39989 -0.00218977 7.28668C0.00498602 7.17346 0.0345654 7.06279 0.0848333 6.96109C0.135101 6.85939 0.205058 6.76868 0.290647 6.69422C0.462325 6.54542 0.686054 6.47087 0.912672 6.48694C1.13929 6.50301 1.35026 6.6084 1.49922 6.77993L3.26493 8.77708C3.28214 8.80182 3.30528 8.82186 3.33223 8.83533C3.35919 8.84881 3.3891 8.85531 3.41922 8.85422C3.44841 8.85493 3.47739 8.84914 3.50407 8.83729C3.53076 8.82543 3.55447 8.80779 3.5735 8.78565L10.5249 1.55136C10.6858 1.40671 10.8954 1.32822 11.1117 1.33165C11.328 1.33508 11.535 1.42016 11.6912 1.56984C11.8473 1.71951 11.9412 1.92271 11.9538 2.13867C11.9664 2.35462 11.8969 2.56737 11.7592 2.73422L4.73065 10.1314C4.57037 10.3191 4.37029 10.4689 4.14493 10.5697C3.91958 10.6705 3.6746 10.7199 3.42779 10.7142Z" fill="white"/>
</g>
<defs>
<clipPath id="clip0_345_87956">
<rect width="12" height="12" fill="white"/>
</clipPath>
</defs>
</svg>
