<svg aria-hidden="true" style="position: absolute; width: 0; height: 0; overflow: hidden;" version="1.1" xmlns="http://www.w3.org/2000/svg" xmlns:xlink="http://www.w3.org/1999/xlink">
  <defs>
    <symbol id="icon-svg-example" viewBox="0 0 32 32">
      <path d="M31.814 7.613l-7.227-7.227c-0.248-0.246-0.584-0.385-0.933-0.387h-15.453c-0.707 0-1.386 0.281-1.886 0.781s-0.781 1.178-0.781 1.886v7.667c0 0.088 0.035 0.173 0.098 0.236s0.147 0.098 0.236 0.098h2c0.088 0 0.173-0.035 0.236-0.098s0.098-0.147 0.098-0.236v-7c0-0.177 0.070-0.346 0.195-0.471s0.295-0.195 0.471-0.195h13.667c0.088 0 0.173 0.035 0.236 0.098s0.098 0.147 0.098 0.236v3.667c0 0.707 0.281 1.386 0.781 1.886s1.178 0.781 1.886 0.781h3.667c0.088 0 0.173 0.035 0.236 0.098s0.098 0.147 0.098 0.236v19c0 0.177-0.070 0.346-0.195 0.471s-0.295 0.195-0.471 0.195h-20.333c-0.088 0-0.173-0.035-0.236-0.098s-0.098-0.147-0.098-0.236v-0.667c0-0.088-0.035-0.173-0.098-0.236s-0.147-0.098-0.236-0.098h-2c-0.088 0-0.173 0.035-0.236 0.098s-0.098 0.147-0.098 0.236v1c0 0.707 0.281 1.386 0.781 1.886s1.178 0.781 1.886 0.781h21.333c0.707 0 1.386-0.281 1.886-0.781s0.781-1.178 0.781-1.886v-20.787c-0.001-0.35-0.14-0.685-0.387-0.933z"></path>
      <path d="M24.2 25.333v-12c0-0.354-0.14-0.693-0.391-0.943s-0.589-0.391-0.943-0.391h-21.333c-0.354 0-0.693 0.14-0.943 0.391s-0.391 0.589-0.391 0.943v12c0 0.354 0.14 0.693 0.391 0.943s0.589 0.391 0.943 0.391h21.333c0.354 0 0.693-0.14 0.943-0.391s0.391-0.589 0.391-0.943zM4.773 17.827l2.453 1.627c0.35 0.238 0.637 0.558 0.834 0.932s0.3 0.791 0.299 1.215c0 0.679-0.27 1.33-0.75 1.81s-1.131 0.75-1.81 0.75h-2.267c-0.219 0-0.429-0.087-0.585-0.242s-0.242-0.365-0.242-0.585c0-0.219 0.087-0.429 0.242-0.585s0.365-0.242 0.585-0.242h2.267c0.195-0 0.385-0.064 0.542-0.181s0.271-0.281 0.326-0.469c0.055-0.187 0.049-0.388-0.019-0.571s-0.193-0.34-0.356-0.446l-2.453-1.627c-0.35-0.238-0.637-0.558-0.834-0.932s-0.3-0.791-0.299-1.215c0-0.679 0.27-1.33 0.75-1.81s1.131-0.75 1.81-0.75h2.267c0.219 0 0.43 0.087 0.585 0.242s0.242 0.365 0.242 0.585c0 0.219-0.087 0.43-0.242 0.585s-0.365 0.242-0.585 0.242h-2.267c-0.195 0-0.385 0.064-0.542 0.181s-0.271 0.281-0.326 0.469c-0.055 0.187-0.049 0.388 0.019 0.571s0.193 0.34 0.356 0.446zM15.027 17.333c-0.001 2.345-0.758 4.627-2.16 6.507-0.080 0.1-0.181 0.181-0.297 0.236s-0.242 0.084-0.37 0.084-0.254-0.029-0.37-0.084c-0.115-0.055-0.217-0.136-0.297-0.236-1.402-1.88-2.159-4.162-2.16-6.507v-2c0-0.219 0.087-0.429 0.242-0.585s0.365-0.242 0.585-0.242 0.43 0.087 0.585 0.242c0.155 0.155 0.242 0.365 0.242 0.585v2c0.002 1.384 0.312 2.75 0.907 4 0.031 0.041 0.071 0.075 0.118 0.098s0.097 0.035 0.149 0.035 0.103-0.012 0.149-0.035c0.046-0.023 0.087-0.057 0.118-0.098 0.599-1.248 0.909-2.615 0.907-4v-2c0-0.219 0.087-0.429 0.242-0.585s0.365-0.242 0.585-0.242 0.43 0.087 0.585 0.242c0.155 0.155 0.242 0.365 0.242 0.585v2zM21.693 18c0 0.219-0.087 0.43-0.242 0.585s-0.365 0.242-0.585 0.242-0.43-0.087-0.585-0.242c-0.155-0.155-0.242-0.365-0.242-0.585v-0.667c0-0.311-0.124-0.61-0.344-0.83s-0.518-0.344-0.83-0.344c-0.311 0-0.61 0.124-0.83 0.344s-0.344 0.518-0.344 0.83v4c-0.001 0.268 0.090 0.529 0.257 0.738s0.402 0.355 0.664 0.413c0.262 0.058 0.536 0.024 0.776-0.096s0.432-0.318 0.543-0.561c0-0.107 0.107-0.333-0.133-0.333h-0.267c-0.219 0-0.429-0.087-0.585-0.242s-0.242-0.365-0.242-0.585c0-0.219 0.087-0.43 0.242-0.585s0.365-0.242 0.585-0.242h1.333c0.219 0 0.429 0.087 0.585 0.242s0.242 0.365 0.242 0.585v0.667c0 0.75-0.298 1.469-0.828 1.999s-1.249 0.828-1.999 0.828-1.469-0.298-1.999-0.828c-0.53-0.53-0.828-1.249-0.828-1.999v-4c0-0.75 0.298-1.469 0.828-1.999s1.249-0.828 1.999-0.828 1.469 0.298 1.999 0.828c0.53 0.53 0.828 1.249 0.828 1.999v0.667z"></path>
    </symbol>
  </defs>
</svg>
