<svg style="position: absolute; width: 0; height: 0; overflow: hidden;" version="1.1" xmlns="http://www.w3.org/2000/svg"
  xmlns:xlink="http://www.w3.org/1999/xlink">
  <defs>
    <symbol id="icon-arrow-right" viewBox="0 0 32 32">
    <title>arrow-right</title>
    <path d="M20.508 7.275c-0.354-0.367-0.944-0.367-1.31 0-0.354 0.354-0.354 0.944 0 1.297l6.644 6.644h-21.925c-0.511 0.001-0.917 0.407-0.917 0.918s0.406 0.931 0.917 0.931h21.925l-6.644 6.632c-0.354 0.367-0.354 0.957 0 1.31 0.367 0.367 0.957 0.367 1.31 0l8.217-8.217c0.367-0.354 0.367-0.944 0-1.297l-8.217-8.218z"></path>
    </symbol>
    <!-- Social Media Icons -->
    <symbol id="icon-facebook" viewBox="0 0 32 32">
      <title>facebook</title>
      <path
        d="M24.308 0.23v5.077h-3.020q-1.654 0-2.23 0.692t-0.577 2.077v3.635h5.634l-0.75 5.692h-4.885v14.596h-5.884v-14.596h-4.904v-5.692h4.904v-4.192q0-3.576 2-5.548t5.326-1.971q2.827 0 4.384 0.23z">
      </path>
    </symbol>
    <symbol id="icon-twitter" viewBox="0 0 32 32">
      <title>twitter</title>
      <path
        d="M32 6.093q-1.36 1.99-3.289 3.391 0.020 0.284 0.020 0.853 0 2.639-0.772 5.269t-2.346 5.045-3.746 4.274-5.238 2.964-6.558 1.106q-5.502 0-10.070-2.944 0.711 0.081 1.584 0.081 4.569 0 8.142-2.802-2.132-0.041-3.817-1.31t-2.315-3.238q0.67 0.101 1.238 0.101 0.873 0 1.726-0.223-2.274-0.467-3.767-2.264t-1.493-4.173v-0.081q1.38 0.772 2.964 0.832-1.341-0.894-2.132-2.335t-0.791-3.127q0-1.786 0.894-3.31 2.457 3.026 5.98 4.843t7.543 2.020q-0.163-0.772-0.163-1.502 0-2.721 1.919-4.639t4.639-1.919q2.843 0 4.791 2.071 2.213-0.426 4.163-1.584-0.752 2.335-2.883 3.615 1.889-0.204 3.776-1.015z">
      </path>
    </symbol>
    <symbol id="icon-instagram" viewBox="0 0 32 32">
      <title>instagram</title>
      <path
        d="M21.333 16q0-2.209-1.562-3.771t-3.771-1.562-3.771 1.562-1.562 3.771 1.562 3.771 3.771 1.562 3.771-1.562 1.562-3.771zM24.208 16q0 3.417-2.396 5.812t-5.812 2.396-5.812-2.396-2.396-5.812 2.396-5.812 5.812-2.396 5.812 2.396 2.396 5.812zM26.458 7.459q0 0.792-0.562 1.355t-1.355 0.562-1.355-0.562-0.562-1.355 0.562-1.355 1.355-0.562 1.355 0.562 0.562 1.355zM15.999 2.875q-0.146 0-1.594-0.010t-2.198 0-2.010 0.063-2.146 0.209-1.49 0.385q-1.042 0.417-1.833 1.209t-1.209 1.833q-0.229 0.604-0.385 1.49t-0.209 2.146-0.063 2.010 0 2.198 0.010 1.594-0.010 1.594 0 2.198 0.063 2.010 0.209 2.146 0.385 1.49q0.417 1.042 1.209 1.833t1.833 1.209q0.604 0.229 1.49 0.385t2.146 0.209 2.010 0.063 2.198 0 1.594-0.011 1.594 0.011 2.198 0 2.010-0.063 2.146-0.209 1.49-0.385q1.042-0.416 1.833-1.209t1.209-1.833q0.229-0.604 0.385-1.49t0.209-2.146 0.063-2.010 0-2.198-0.011-1.594 0.011-1.594 0-2.198-0.063-2.010-0.209-2.146-0.385-1.49q-0.416-1.042-1.209-1.833t-1.833-1.209q-0.604-0.229-1.49-0.385t-2.146-0.209-2.010-0.063-2.198 0-1.594 0.010zM32 16q0 4.771-0.104 6.605-0.209 4.333-2.583 6.708t-6.708 2.583q-1.833 0.104-6.605 0.104t-6.605-0.104q-4.333-0.209-6.708-2.583t-2.583-6.708q-0.104-1.833-0.104-6.605t0.104-6.605q0.209-4.333 2.583-6.708t6.708-2.583q1.833-0.104 6.605-0.104t6.605 0.104q4.333 0.209 6.708 2.583t2.583 6.708q0.104 1.833 0.104 6.605z">
      </path>
    </symbol>
    <symbol id="icon-youtube" viewBox="0 0 32 32">
      <title>youtube</title>
      <path
        d="M31.341 8.303c-0.369-1.371-1.45-2.452-2.82-2.821-2.504-0.685-12.521-0.685-12.521-0.685s-10.016 0-12.52 0.659c-1.344 0.369-2.452 1.476-2.82 2.847-0.659 2.504-0.659 7.697-0.659 7.697s0 5.219 0.659 7.697c0.369 1.371 1.45 2.451 2.821 2.82 2.53 0.685 12.521 0.685 12.521 0.685s10.016 0 12.52-0.659c1.371-0.369 2.451-1.45 2.821-2.82 0.659-2.504 0.659-7.697 0.659-7.697s0.026-5.219-0.659-7.723zM12.811 20.797v-9.595l8.329 4.797-8.329 4.797z">
      </path>
    </symbol>
    <symbol id="icon-pinterest" viewBox="0 0 32 32">
      <title>pinterest</title>
      <path
        d="M3.693 11.479q0-2.077 0.721-3.913t1.99-3.201 2.923-2.365 3.558-1.5 3.884-0.5q3.038 0 5.654 1.279t4.249 3.721 1.635 5.519q0 1.846-0.365 3.615t-1.153 3.404-1.923 2.875-2.788 1.98-3.634 0.741q-1.307 0-2.596-0.615t-1.846-1.692q-0.193 0.75-0.538 2.163t-0.452 1.826-0.394 1.365-0.5 1.365-0.615 1.202-0.884 1.49-1.192 1.664l-0.269 0.096-0.173-0.193q-0.289-3.020-0.289-3.615 0-1.769 0.414-3.971t1.279-5.529 1-3.904q-0.615-1.25-0.615-3.25 0-1.596 1-3t2.538-1.404q1.173 0 1.826 0.779t0.654 1.971q0 1.27-0.846 3.673t-0.846 3.596q0 1.211 0.866 2.009t2.096 0.798q1.057 0 1.961-0.48t1.51-1.307 1.077-1.826 0.731-2.125 0.384-2.134 0.125-1.914q0-3.326-2.105-5.183t-5.49-1.855q-3.845 0-6.422 2.491t-2.577 6.317q0 0.846 0.24 1.635t0.519 1.25 0.519 0.876 0.24 0.587q0 0.538-0.289 1.404t-0.712 0.866q-0.039 0-0.327-0.058-0.981-0.289-1.74-1.077t-1.173-1.818-0.625-2.077-0.211-2.048z">
      </path>
    </symbol>
    <symbol id="icon-linkedin" viewBox="0 0 32 32">
      <title>linkedin</title>
      <path
        d="M11.429 10.286h6.325v3.242h0.090c0.88-1.578 3.034-3.242 6.244-3.242 6.677 0 7.911 4.156 7.911 9.562v11.009h-6.593v-9.76c0-2.328-0.048-5.322-3.43-5.322-3.434 0-3.958 2.535-3.958 5.153v9.929h-6.591v-20.571z">
      </path>
      <path d="M0 10.286h6.857v20.571h-6.857v-20.571z"></path>
      <path
        d="M6.857 4.571c0 1.894-1.535 3.429-3.429 3.429s-3.429-1.535-3.429-3.429c0-1.894 1.535-3.429 3.429-3.429s3.429 1.535 3.429 3.429z">
      </path>
    </symbol>
    <symbol id="icon-link" viewBox="0 0 32 32">
      <title>link</title>
      <path
        d="M28.471 3.529c-2.571-2.571-6.755-2.572-9.327-0.001l0.001 0.001-4.069 4.069 1.878 1.878 4.069-4.071c1.536-1.534 4.034-1.533 5.57 0.002s1.535 4.034 0 5.571l-6.106 6.106c-0.744 0.744-1.733 1.154-2.785 1.154s-2.041-0.41-2.785-1.154l-1.878 1.878c1.246 1.246 2.902 1.932 4.663 1.932s3.418-0.686 4.663-1.932l6.106-6.106c2.571-2.572 2.571-6.756-0-9.326z">
      </path>
      <path
        d="M10.977 26.594c-1.536 1.535-4.035 1.535-5.571-0.001s-1.536-4.035-0-5.571l6.105-6.105c1.536-1.536 4.035-1.536 5.571 0l1.878-1.878c-2.572-2.571-6.756-2.572-9.327 0l-6.106 6.105c-2.571 2.571-2.571 6.756 0 9.327 1.286 1.286 2.975 1.929 4.664 1.929s3.377-0.643 4.663-1.928l0-0 4.070-4.071-1.878-1.878-4.069 4.071z">
      </path>
    </symbol>
    <symbol id="icon-tiktok" viewBox="0 0 32 32">
      <title>tiktok</title>
      <path
        d="M30.020 8.024c-1.826 0-3.511-0.605-4.864-1.626-1.552-1.17-2.667-2.886-3.061-4.864-0.098-0.489-0.15-0.993-0.155-1.51h-5.217v14.255l-0.006 7.808c0 2.087-1.359 3.858-3.244 4.48-0.547 0.181-1.137 0.266-1.752 0.233-0.785-0.043-1.521-0.28-2.16-0.663-1.361-0.814-2.283-2.29-2.308-3.979-0.039-2.639 2.094-4.791 4.732-4.791 0.521 0 1.021 0.085 1.489 0.239v-5.297c-0.494-0.073-0.996-0.111-1.504-0.111-2.887 0-5.587 1.2-7.517 3.362-1.459 1.634-2.334 3.718-2.469 5.904-0.177 2.871 0.874 5.601 2.911 7.614 0.299 0.296 0.614 0.57 0.942 0.823 1.747 1.344 3.883 2.073 6.132 2.073 0.508 0 1.011-0.038 1.504-0.111 2.101-0.311 4.040-1.273 5.57-2.786 1.88-1.858 2.919-4.325 2.93-6.951l-0.027-11.66c0.897 0.692 1.878 1.264 2.93 1.709 1.637 0.691 3.372 1.041 5.159 1.040v-5.194c0.001 0.001-0.014 0.001-0.015 0.001v0z">
      </path>
    </symbol>
    <!-- Form Icons -->
    <symbol id="icon-checkbox" viewBox="0 0 32 32">
      <title>checkbox</title>
      <path
        d="M28 0h-24c-2.2 0-4 1.8-4 4v24c0 2.2 1.8 4 4 4h24c2.2 0 4-1.8 4-4v-24c0-2.2-1.8-4-4-4zM28 28h-24v-24h24v24z">
      </path>
    </symbol>
    <symbol id="icon-checkbox-checked" viewBox="0 0 32 32">
      <title>checkbox-checked</title>
      <path
        d="M28 0h-24c-2.2 0-4 1.8-4 4v24c0 2.2 1.8 4 4 4h24c2.2 0 4-1.8 4-4v-24c0-2.2-1.8-4-4-4zM14 24.828l-7.414-7.414 2.828-2.828 4.586 4.586 9.586-9.586 2.828 2.828-12.414 12.414z">
      </path>
    </symbol>
    <symbol id="icon-radio" viewBox="0 0 32 32">
      <title>radio</title>
      <path
        d="M16 0c-8.837 0-16 7.163-16 16s7.163 16 16 16 16-7.163 16-16-7.163-16-16-16zM16 28c-6.627 0-12-5.373-12-12s5.373-12 12-12c6.627 0 12 5.373 12 12s-5.373 12-12 12z">
      </path>
    </symbol>
    <symbol id="icon-radio-selected" viewBox="0 0 32 32">
      <title>radio-selected</title>
      <path
        d="M16 0c-8.837 0-16 7.163-16 16s7.163 16 16 16 16-7.163 16-16-7.163-16-16-16zM16 20c-2.209 0-4-1.791-4-4s1.791-4 4-4c2.209 0 4 1.791 4 4s-1.791 4-4 4z">
      </path>
    </symbol>

    <!-- Loop Video Component Icons -->
    <symbol id="icon-play-loop" viewBox="0 0 23 32">
      <title>play</title>
      <path d="M22.268 15.932l-21.679 14.465v-28.93l21.679 14.465z"></path>
    </symbol>
    <symbol id="icon-pause-loop" viewBox="0 0 24 32">
      <title>pause</title>
      <path fill="currentColor" style="fill: var(--color1, currentColor)" d="M0 0h8v32h-8v-32z"></path>
      <path fill="currentColor" style="fill: var(--color1, currentColor)" d="M16 0h8v32h-8v-32z"></path>
    </symbol>

    <!-- General Icons -->
      <symbol id="icon-play-video" viewBox="0 0 32 32">
      <title>play-video</title>
      <path fill="#77ab42" style="fill: var(--color1, #77ab42)" d="M32 16c0 8.837-7.163 16-16 16s-16-7.163-16-16c0-8.837 7.163-16 16-16s16 7.163 16 16z"></path>
      <path fill="#fff" style="fill: var(--color2, #fff)" d="M16 32c3.165 0 6.258-0.938 8.889-2.697s4.682-4.257 5.893-7.181c1.211-2.924 1.528-6.141 0.91-9.244s-2.141-5.955-4.379-8.192c-2.238-2.238-5.089-3.761-8.192-4.379s-6.321-0.3-9.244 0.91c-2.924 1.211-5.422 3.262-7.181 5.893s-2.696 5.725-2.696 8.889c0 4.244 1.686 8.313 4.686 11.314s7.070 4.686 11.314 4.686zM22.413 16.667c-0.010 0.239-0.090 0.47-0.23 0.664s-0.333 0.343-0.557 0.429l-8.107 4.067c-0.221 0.106-0.462 0.165-0.707 0.173-0.231-0-0.457-0.065-0.653-0.187-0.202-0.129-0.365-0.309-0.473-0.523s-0.156-0.452-0.14-0.691v-7.867c-0.012-0.24 0.039-0.479 0.146-0.694s0.268-0.398 0.467-0.533c0.203-0.117 0.433-0.179 0.667-0.179s0.464 0.062 0.667 0.179l8.12 4c0.228 0.099 0.424 0.261 0.566 0.466s0.223 0.445 0.234 0.694z"></path>
      </symbol>
      <symbol id="icon-minus" viewBox="0 0 224 32">
      <title>minus</title>
      <path d="M207.234 24.197h-190.464c-4.518 0-8.192-3.674-8.192-8.192s3.674-8.192 8.192-8.192h190.464c4.518 0 8.192 3.674 8.192 8.192s-3.674 8.192-8.192 8.192z"></path>
      </symbol>
      <symbol id="icon-plus" viewBox="0 0 32 32">
      <title>plus</title>
      <path d="M30.651 17.26h-29.302c-0.695 0-1.26-0.565-1.26-1.26s0.565-1.26 1.26-1.26h29.302c0.695 0 1.26 0.565 1.26 1.26s-0.565 1.26-1.26 1.26z"></path>
      <path d="M16.001 31.911c-0.695 0-1.26-0.565-1.26-1.26v-29.302c0-0.695 0.565-1.26 1.26-1.26s1.26 0.565 1.26 1.26v29.302c0 0.695-0.565 1.26-1.26 1.26z"></path>
      </symbol>
      <symbol id="icon-chevron-right" viewBox="0 0 32 32">
      <title>chevron-right</title>
      <path d="M22.144 17.139c0.461-0.461 0.461-1.203 0-1.638l-10.317-10.317c-0.512-0.512-1.331-0.512-1.843 0s-0.512 1.331 0 1.843l8.474 8.474c0.461 0.461 0.461 1.203 0 1.638l-8.474 8.474c-0.512 0.512-0.512 1.331 0 1.843s1.331 0.512 1.843 0l10.317-10.317z"></path>
      </symbol>
      <symbol id="icon-arrow-left" viewBox="0 0 30 32">
      <title>arrow-left</title>
      <path d="M10.935 7.69c0.349-0.349 0.899-0.349 1.248 0 0.337 0.337 0.337 0.899 0 1.235l-6.327 6.327h20.877c0.487 0 0.886 0.387 0.886 0.873s-0.399 0.886-0.886 0.886h-20.877l6.327 6.315c0.337 0.349 0.337 0.911 0 1.248-0.349 0.349-0.899 0.349-1.248 0l-7.824-7.824c-0.337-0.337-0.337-0.899 0-1.235l7.824-7.824z"></path>
      </symbol>
      <symbol id="icon-chevron-left" viewBox="0 0 21 32">
      <title>chevron-left</title>
      <path d="M2.475 17.519c-0.614-0.614-0.614-1.604 0-2.185l13.756-13.756c0.683-0.683 1.775-0.683 2.458 0s0.683 1.775 0 2.458l-11.298 11.298c-0.614 0.614-0.614 1.604 0 2.185l11.298 11.298c0.683 0.683 0.683 1.775 0 2.458s-1.775 0.683-2.458 0l-13.756-13.756z"></path>
      </symbol>
      <symbol id="icon-document" viewBox="0 0 32 32">
      <title>document</title>
      <path d="M25.775 9.379l-6.154-6.154c-0.144-0.144-0.34-0.225-0.544-0.225h-10.769c-1.272 0-2.308 1.035-2.308 2.308v21.641c0 1.273 1.035 2.308 2.308 2.308h15.385c1.273 0 2.308-1.035 2.308-2.308v-17.026c0-0.21-0.088-0.407-0.225-0.544zM19.846 5.626l3.527 3.528h-2.758c-0.424 0-0.769-0.345-0.769-0.769v-2.758zM23.692 27.718h-15.385c-0.424 0-0.769-0.345-0.769-0.769v-21.641c0-0.424 0.345-0.769 0.769-0.769h10v3.846c0 1.272 1.035 2.308 2.308 2.308h3.846v16.256c0 0.424-0.345 0.769-0.769 0.769z"></path>
      <path d="M20.615 13.872h-9.231c-0.425 0-0.769 0.344-0.769 0.769s0.344 0.769 0.769 0.769h9.231c0.425 0 0.769-0.344 0.769-0.769s-0.344-0.769-0.769-0.769z"></path>
      <path d="M20.615 16.948h-9.231c-0.425 0-0.769 0.345-0.769 0.769s0.344 0.769 0.769 0.769h9.231c0.425 0 0.769-0.344 0.769-0.769s-0.344-0.769-0.769-0.769z"></path>
      <path d="M20.615 20.025h-9.231c-0.425 0-0.769 0.344-0.769 0.769s0.344 0.769 0.769 0.769h9.231c0.425 0 0.769-0.345 0.769-0.769s-0.344-0.769-0.769-0.769z"></path>
      <path d="M17.538 23.102h-6.154c-0.425 0-0.769 0.344-0.769 0.769s0.344 0.769 0.769 0.769h6.154c0.425 0 0.769-0.344 0.769-0.769s-0.344-0.769-0.769-0.769z"></path>
      </symbol>
    <symbol id="icon-chevron-down" viewBox="0 0 32 32">
    <path d="M27.68 9.319c-0.426-0.426-1.117-0.426-1.543 0l-10.137 10.138-10.138-10.138c-0.426-0.426-1.117-0.426-1.543 0s-0.426 1.117 0 1.543l10.909 10.909c0.205 0.205 0.482 0.32 0.771 0.32s0.567-0.115 0.771-0.32l10.909-10.909c0.426-0.426 0.426-1.117 0-1.543z"></path>
    </symbol>
    <symbol id="icon-chevron-up" viewBox="0 0 32 32">
    <path d="M27.68 20.229l-10.909-10.909c-0.204-0.205-0.482-0.319-0.771-0.319s-0.567 0.115-0.771 0.32l-10.909 10.909c-0.426 0.426-0.426 1.117 0 1.543s1.117 0.426 1.543 0l10.137-10.138 10.138 10.138c0.213 0.213 0.492 0.32 0.771 0.32s0.558-0.107 0.771-0.32c0.426-0.426 0.426-1.117 0-1.543z"></path>
    </symbol>
    <symbol id="icon-send" viewBox="0 0 24 24">
      <title>send</title>
      <path d="M2.016 21v-6.984l15-2.016-15-2.016v-6.984l21 9z"></path>
    </symbol>
    <symbol id="icon-location" viewBox="0 0 32 32">
      <title>location</title>
      <path class="path1"
        d="M26.501 7.964c-0.114-0.427-0.345-0.882-0.516-1.28-2.048-4.921-6.522-6.684-10.134-6.684-4.836 0-10.162 3.243-10.873 9.927v1.366c0 0.057 0.020 0.569 0.048 0.825 0.399 3.185 2.912 6.571 4.789 9.756 2.020 3.413 4.115 6.77 6.192 10.126 1.28-2.19 2.556-4.409 3.807-6.542 0.341-0.626 0.737-1.252 1.078-1.849 0.227-0.398 0.662-0.796 0.861-1.166 2.020-3.698 5.27-7.424 5.27-11.093v-1.507c0-0.398-0.493-1.792-0.521-1.877zM15.94 14.82c-1.422 0-2.978-0.711-3.746-2.674-0.114-0.312-0.105-0.939-0.105-0.996v-0.882c0-2.502 2.125-3.64 3.973-3.64 2.276 0 4.036 1.821 4.036 4.096s-1.883 4.096-4.158 4.096z">
      </path>
    </symbol>
  </defs>
</svg>
